<svg xmlns="http://www.w3.org/2000/svg" viewBox="0 0 32 40" x="0px" y="0px">
  <g>
    <path d="M16 32c-.65 0-1.258-.327-1.63-.866l-.131-.187-7.893-14.674c-.881-1.609-1.346-3.432-1.346-5.273 0-6.065 4.935-11 11-11s11 4.935 11 11c0 1.841-.466 3.666-1.348 5.276l-7.891 14.671-.137.194c-.372.535-.977.859-1.624.859zm-.075-2.14l.083.125 7.886-14.663c.725-1.323 1.106-2.816 1.106-4.322 0-4.962-4.037-9-9-9-4.962 0-9 4.038-9 9 0 1.507.381 3 1.102 4.316l.004.007 7.819 14.537zM16 15c-2.206 0-4-1.794-4-4s1.794-4 4-4 4 1.794 4 4-1.794 4-4 4zm0-6c-1.103 0-2 .897-2 2s.897 2 2 2 2-.897 2-2-.897-2-2-2z"/>
  </g>
</svg>