<?xml version="1.0" encoding="utf-8"?>
<!DOCTYPE svg PUBLIC "-//W3C//DTD SVG 1.1//EN" "http://www.w3.org/Graphics/SVG/1.1/DTD/svg11.dtd">
<svg version="1.1" xmlns="http://www.w3.org/2000/svg" viewBox="0 0 128 128" xml:space="preserve">
<circle fill="#ba0b40" cx="64" cy="64" r="64"/>
<g fill="#E9E4E5" transform="scale(.9), translate(3, 10)">
	<g>
		<g>
			<g>
				<path d="M24.3979,52.0244c-7.5356,0-13.7319-5.6665-14.4131-13.1807c-0.7207-7.9561,5.1655-15.0146,13.1216-15.7358
					c0.4395-0.04,0.8843-0.0596,1.3228-0.0596c7.5356,0,13.7319,5.6665,14.4131,13.1816c0.3486,3.853-0.8242,7.6123-3.3022,10.5845
					c-2.4771,2.9717-5.9653,4.8003-9.8188,5.1504C25.2817,52.0054,24.8359,52.0244,24.3979,52.0244z M24.4292,24.103
					c-0.4072,0-0.8203,0.0186-1.2275,0.0557c-7.3765,0.6685-12.8345,7.2129-12.167,14.5894
					c0.6318,6.9673,6.3765,12.2227,13.3638,12.2227c0.4067,0,0.8193-0.0195,1.2275-0.0566c3.5737-0.3232,6.8076-2.0186,9.105-4.7744
					c2.2979-2.7559,3.3857-6.2422,3.062-9.8145C37.1602,29.3574,31.4155,24.103,24.4292,24.103z"/>
			</g>
			<g>
				<path d="M13.1519,46.0103l-0.3794-0.9839c13.6597-5.2759,11.313-20.7739,11.2065-21.4307l1.041-0.1699
					C25.0479,23.5947,27.6167,40.4229,13.1519,46.0103z"/>
			</g>
			<g>
				<path d="M12.0293,43.7456l-0.3799-0.9839c12.0864-4.6665,9.9282-18.8037,9.9053-18.9463l1.0405-0.1694
					C22.6196,23.7964,24.9053,38.7739,12.0293,43.7456z"/>
			</g>
			<g>
				<path d="M14.6045,47.8999l-0.3799-0.9839c14.7695-5.7036,12.1328-22.9692,12.1045-23.1431l1.041-0.1699
					C27.3994,23.7861,30.1646,41.8906,14.6045,47.8999z"/>
			</g>
			<g>
				<path d="M36.6221,57.8643c-0.0166,0-0.0327,0-0.0493-0.0029c-0.2905-0.0264-0.5044-0.2832-0.4771-0.5732
					c0.1045-1.1187-0.2046-1.9585-0.9443-2.5659c-1.7266-1.4185-5.8823-1.436-10.5894-0.043
					c-6.0908,1.8032-9.6743,1.1084-10.6519-2.0645c-0.2778-0.9023-0.2256-1.7227,0.1548-2.4399
					c0.6528-1.2285,2.0435-1.6621,2.1025-1.6812c15.2578-5.895,12.541-23.7969,12.5112-23.978
					c-0.0459-0.2866,0.1489-0.5586,0.4355-0.605c0.2861-0.0483,0.5581,0.1484,0.605,0.4351
					c0.0308,0.1885,2.8906,18.9248-13.2095,25.1436c-0.2603,0.083-2.2251,0.7632-1.5923,2.8154
					c0.7734,2.5112,3.9185,2.9697,9.3452,1.3628c5.186-1.5347,9.5063-1.4443,11.5586,0.2397c1.001,0.8228,1.459,2.0249,1.3242,3.478
					C37.1206,57.6597,36.8911,57.8643,36.6221,57.8643z"/>
			</g>
			<g>
				<path d="M13.1519,46.0103l-0.3794-0.9839c13.6597-5.2759,11.313-20.7739,11.2065-21.4307l1.041-0.1699
					C25.0479,23.5947,27.6167,40.4229,13.1519,46.0103z"/>
			</g>
			<g>
				<path d="M12.0293,43.7456l-0.3799-0.9839c12.0864-4.6665,9.9282-18.8037,9.9053-18.9463l1.0405-0.1694
					C22.6196,23.7964,24.9053,38.7739,12.0293,43.7456z"/>
			</g>
			<g>
				<path d="M14.6045,47.8999l-0.3799-0.9839c14.7695-5.7036,12.1328-22.9692,12.1045-23.1431l1.041-0.1699
					C27.3994,23.7861,30.1646,41.8906,14.6045,47.8999z"/>
			</g>
			<g>
				<g>
					<g>
						<path d="M16.7808,40.6738c-2.2944-0.6396-4.5234-1.7002-6.623-3.1523l0.5991-0.8672
							c2.0039,1.3857,4.1255,2.3965,6.3071,3.0029L16.7808,40.6738z"/>
					</g>
					<g>
						<path d="M26.5029,41.002l-0.1987-1.0361c5.2686-1.0151,9.4971-3.7266,11.5479-5.2524l0.6294,0.8457
							C36.3579,37.1382,31.9771,39.9463,26.5029,41.002z"/>
					</g>
				</g>
				<g>
					<path d="M19.0063,38.2026c-2.9751-0.5405-5.8096-1.7974-8.4253-3.7368l0.627-0.8472c2.4854,1.8413,5.1719,3.0352,7.9863,3.5464
						L19.0063,38.2026z"/>
				</g>
				<g>
					<path d="M28.0166,37.7832l-0.2651-1.0205c5.6201-1.4561,9.5962-4.7231,9.6357-4.7554l0.6733,0.811
						C37.8921,32.9575,33.8628,36.2686,28.0166,37.7832z"/>
				</g>
				<g>
					<g>
						<path d="M14.4077,42.3979c-1.3716-0.519-2.7236-1.1855-4.0186-1.9824l0.5513-0.8979
							c1.2388,0.7612,2.5312,1.3979,3.8403,1.8936L14.4077,42.3979z"/>
					</g>
					<g>
						<path d="M24.6201,43.6924l-0.1079-1.0479c6.019-0.6265,11.0806-3.5815,13.563-5.2881l0.5962,0.8691
							C35.5391,40.3784,30.5591,43.0752,24.6201,43.6924z"/>
					</g>
				</g>
			</g>
			<g>
				<path d="M27.4707,51.438l-0.9678-0.4199c1.2417-2.856,1.8032-5.7539,1.6699-8.6138l1.0537-0.0493
					C29.3672,45.377,28.7769,48.4326,27.4707,51.438z"/>
			</g>
			<g>
				<path d="M21.813,28.5176c-1.8687-2.0327-3.4492-3.1792-3.4644-3.1909l0.6157-0.856c0.0674,0.0483,1.6772,1.2158,3.625,3.3325
					L21.813,28.5176z"/>
			</g>
			<g>
				<path d="M30.8311,50.3843l-0.9692-0.4141c1.229-2.8818,1.7646-5.8032,1.5952-8.6836l1.0513-0.0625
					C32.689,44.2681,32.124,47.3506,30.8311,50.3843z"/>
			</g>
			<g>
				<path d="M30.4941,36.4126c-0.4526-1.3403-1.063-2.6797-1.8164-3.9819l0.9126-0.5273c0.7876,1.3618,1.4272,2.7661,1.9023,4.1724
					L30.4941,36.4126z"/>
			</g>
			<g>
				<path d="M33.5078,48.7236l-0.981-0.3862c1.0645-2.7051,1.5176-5.4497,1.3491-8.1553l1.0518-0.0649
					C35.1069,42.9771,34.6289,45.874,33.5078,48.7236z"/>
			</g>
			<g>
				<path d="M32.9014,35.3223c-0.8179-2.4033-2.1255-4.7612-3.8887-7.0083l0.8296-0.6509c1.8369,2.3403,3.2012,4.8037,4.0576,7.3188
					L32.9014,35.3223z"/>
			</g>
			<g>
				<path d="M36.0908,46.0669l-1-0.3354c0.7534-2.2495,1.0854-4.5312,0.9863-6.7773l1.0522-0.0459
					C37.2339,41.2847,36.8843,43.6924,36.0908,46.0669z"/>
			</g>
			<g>
				<path d="M35.209,34.1465c-1.2344-3.8833-3.5654-6.9937-5.3037-8.9199L30.688,24.52c1.8081,2.0034,4.2339,5.2437,5.5259,9.3071
					L35.209,34.1465z"/>
			</g>
			<g>
				<path d="M22.5684,51.5063l-0.9639-0.4272c1.0366-2.3438,1.5635-4.7212,1.5654-7.0693l1.0542,0.002
					C24.2217,46.5063,23.6655,49.0278,22.5684,51.5063z"/>
			</g>
			<g>
				<path d="M20.3525,34.6406c-2.5454-4.1387-5.9443-6.6152-5.9785-6.6401l0.6157-0.856c0.146,0.1045,3.6006,2.6167,6.2612,6.9424
					L20.3525,34.6406z"/>
			</g>
			<g>
				<path d="M20.1729,50.6992l-0.9644-0.4277c0.5552-1.2544,0.9482-2.5273,1.168-3.7861l1.0386,0.1812
					C21.1807,48.0107,20.7627,49.3662,20.1729,50.6992z"/>
			</g>
			<g>
				<g>
					<path d="M18.9937,37.3623c-2.2573-4.6362-6.1396-7.4644-6.1787-7.4922l0.6157-0.856c0.1675,0.1196,4.1387,3.0132,6.5107,7.8872
						L18.9937,37.3623z"/>
				</g>
			</g>
			<g>
				<g>
					<path d="M16.2539,37.3433c-1.5947-2.7178-3.6338-4.6665-4.7075-5.5859l0.686-0.8003c1.124,0.9624,3.2583,3.0024,4.9307,5.8535
						L16.2539,37.3433z"/>
				</g>
			</g>
			<g>
				<path d="M24.9316,51.8149l-0.9639-0.4263c1.2358-2.7915,1.7998-5.6245,1.6733-8.4194l1.0532-0.0454
					C26.8281,45.8813,26.2349,48.8735,24.9316,51.8149z"/>
			</g>
			<g>
				<path d="M21.3257,31.7344c-2.4771-3.3159-5.1382-5.252-5.1646-5.271l0.6157-0.856c0.1138,0.0815,2.814,2.043,5.3936,5.4956
					L21.3257,31.7344z"/>
			</g>
			<g>

					<rect x="41.7491" y="16.5703" transform="matrix(-0.3158 -0.9488 0.9488 -0.3158 31.9072 73.008)" width="1.0545" height="16.8594"/>
			</g>
			<g>
				<path d="M3.3584,38.4824c-0.2217,0-0.4268-0.1396-0.5005-0.3608c-0.0923-0.2769,0.0576-0.5752,0.334-0.667l13.7314-4.5708
					c0.2764-0.0933,0.5747,0.0576,0.6675,0.3335c0.0918,0.2759-0.0581,0.5742-0.3345,0.6675L3.5249,38.4556
					C3.4692,38.4731,3.4131,38.4824,3.3584,38.4824z"/>
			</g>
			<g>

					<ellipse transform="matrix(-0.2537 -0.9673 0.9673 -0.2537 41.8831 76.9275)" cx="50.6177" cy="22.3066" rx="2.1459" ry="1.4005"/>
			</g>
			<g>

					<rect x="37.1878" y="16.0434" transform="matrix(-0.585 -0.811 0.811 -0.585 41.6314 66.052)" width="1.0542" height="12.6628"/>
			</g>
			<g>
				<path d="M1.8579,48.1523c-0.1655,0-0.3281-0.0786-0.4312-0.2246c-0.1675-0.2373-0.1113-0.5664,0.127-0.7344l11.8198-8.3496
					c0.2383-0.1685,0.5669-0.1113,0.7358,0.127c0.1675,0.2373,0.1108,0.5659-0.1274,0.7334L2.1621,48.0557
					C2.0688,48.1191,1.9629,48.1523,1.8579,48.1523z"/>
			</g>
			<g>

					<ellipse transform="matrix(-0.5228 -0.8525 0.8525 -0.5228 49.9278 65.0389)" cx="43.1692" cy="18.5439" rx="2.145" ry="1.4007"/>
			</g>
			<g>
				<path d="M17.0894,49.4224"/>
			</g>
		</g>
		<path d="M46.0459,110.0029c-2.8477-1.8018-6.1328-2.2256-6.1328-6.5049v-7.9111c0-0.7891,0.9844-2.5908,2.0806-3.9424
			c1.0947-1.3516,9.0903-8.2236,6.6821-27.3696c-0.3188-2.2861-0.7588-2.5708-3.4556-2.5869
			c-0.2183-0.7598-0.7036-1.4331-1.3921-1.8696c-0.6182-0.6675-1.478-1.0474-2.3867-1.0474c-0.6304,0-1.25,0.1855-1.7788,0.5381
			c-0.4727-1.2319-1.6592-2.0947-3.0444-2.0947c-1.1982,0-2.2944,0.6772-2.8574,1.7114c-1.4092,0.2407-2.5015,1.3901-2.6777,2.8208
			c-1.4976,0.1538-1.8291,0.7007-2.083,2.5283c-2.4087,19.146,5.5874,26.0181,6.6816,27.3696
			c1.0957,1.3516,2.0815,3.1533,2.0815,3.9424v7.9111c0,4.2793-3.2866,4.7031-6.1348,6.5049
			c-2.1743,1.459-1.3149,1.4238,2.1909,1.4238h10.0371C47.3608,111.4258,48.2222,111.4609,46.0459,110.0029z M34.3149,59.8418
			c0.0322,0,0.0654,0.0083,0.0991,0.0103c0.2764-0.9639,1.1523-1.6738,2.2051-1.6738c1.2354,0,2.2354,0.9751,2.2939,2.1973
			c0.209-0.0605,0.4253-0.106,0.6543-0.106c0.125,0,0.2466,0.0186,0.3682,0.0371c0.4058-0.3521,0.9272-0.5723,1.5073-0.5723
			c0.7114,0,1.3408,0.3301,1.7637,0.8374c0.4429,0.249,0.7803,0.645,0.981,1.1118H39.186c0,0-0.2637,0-0.6982,0h-5.7646
			c-0.248,0-0.4546,0.0059-0.668,0.0098C32.2661,60.6387,33.1973,59.8418,34.3149,59.8418z M30.1489,64.418
			c0.2188-1.5767,0.2188-1.5767,2.5757-1.5767h12.228c2.3569,0,2.3569,0,2.5781,1.5928c0.2168,1.7241,0.3447,3.3813,0.4033,4.9858
			c-0.1465,0.2275-0.5454,0.5576-1.6548,0.5576H40.583c0,0-1.6035,0-3.4907,0H31.396c-1.1016,0-1.5024-0.3262-1.6504-0.5537
			C29.8037,67.8145,29.9307,66.1504,30.1489,64.418z M36.5776,90.915c-0.0952-0.1162-0.2383-0.2754-0.4189-0.4756
			c-4.1953-4.5752-6.3447-10.8633-6.4419-18.7334c0.23-0.2158,0.7012-0.4746,1.6792-0.4746h5.6963c1.8877,0,3.4907,0,3.4907,0
			h3.9746c1.541,8.5479-1.98,16.792-2.0254,16.8994c0.5205-0.6084,2.4824-4.373,3.0151-6.2012
			c1.5107-5.1836,1.4502-7.7432,1.4033-10.6475c0.5371,0.085,0.8418,0.2646,1.0098,0.4248
			c-0.0981,7.8662-2.249,14.1543-6.4419,18.7324c-0.1807,0.1992-0.3237,0.3594-0.4229,0.4756
			c-0.6973,0.8594-1.9297,2.6514-2.2588,4.0381C38.5112,93.5674,37.2773,91.7754,36.5776,90.915z"/>
	</g>
	<g>
		<g>
			<path d="M48.792,36.2915c0,0.603,0.1255,1.1113,0.377,1.5229c0.2515,0.4121,0.5732,0.7593,0.9648,1.0405
				c0.3921,0.2817,0.8242,0.5278,1.2969,0.7388c0.4722,0.2109,0.9297,0.4175,1.3721,0.6182
				c0.7637,0.3618,1.5229,0.7441,2.2769,1.146c0.7539,0.4023,1.4321,0.8696,2.0356,1.4023c0.603,0.5327,1.0903,1.166,1.4624,1.8994
				c0.3716,0.7344,0.5576,1.624,0.5576,2.6689c0,1.0454-0.2158,1.9253-0.6479,2.6387c-0.4326,0.7139-0.9951,1.2964-1.689,1.749
				c-0.6934,0.4521-1.4727,0.7793-2.3369,0.98c-0.8647,0.2007-1.7295,0.3018-2.5933,0.3018c-0.5635,0-1.1963-0.0859-1.8999-0.2563
				c-0.7041-0.1709-1.3472-0.4272-1.9302-0.769c-0.1006-0.04-0.1958-0.0801-0.2861-0.1206c-0.0908-0.04-0.2065-0.0605-0.3472-0.0605
				s-0.2915,0.0605-0.4521,0.1812c-0.1611,0.1206-0.3018,0.3315-0.4224,0.6333c-0.0601,0.1206-0.1406,0.2007-0.2412,0.2412
				c-0.1006,0.04-0.2061,0.0552-0.3164,0.0449c-0.1108-0.0103-0.2012-0.0449-0.2715-0.1055
				c-0.0708-0.0601-0.1055-0.1309-0.1055-0.2109c0.0601-0.4419,0.1152-0.9199,0.1655-1.4326
				c0.0503-0.5122,0.0757-1.0298,0.0757-1.5527c0-0.5225-0.0151-1.0449-0.0454-1.5684c-0.0303-0.5225-0.0854-1.0649-0.1655-1.6284
				c-0.0205-0.1206,0.0195-0.2207,0.1206-0.3013c0.1001-0.0801,0.2109-0.1255,0.3315-0.1357
				c0.1206-0.0098,0.2358,0.0103,0.3467,0.0601c0.1104,0.0508,0.1758,0.1357,0.1963,0.2563
				c0.1206,0.8247,0.3413,1.5732,0.6631,2.2466c0.3213,0.6738,0.7236,1.2471,1.2065,1.7192
				c0.4824,0.4727,1.0298,0.8394,1.6431,1.1006s1.2817,0.3921,2.0054,0.3921c0.543,0,1.0605-0.0757,1.5532-0.2261
				c0.4922-0.1509,0.9297-0.3721,1.312-0.6636c0.3813-0.291,0.6831-0.6484,0.9043-1.0708c0.2212-0.4219,0.332-0.9146,0.332-1.4775
				c0-0.7236-0.1562-1.3569-0.4678-1.8999c-0.3115-0.5425-0.6987-1.0098-1.1606-1.4019c-0.4629-0.3921-0.9756-0.7339-1.5381-1.0254
				c-0.563-0.291-1.0962-0.5581-1.5981-0.7993c-0.6636-0.3013-1.3271-0.6128-1.9902-0.9346
				c-0.6636-0.3213-1.2568-0.709-1.7793-1.1611c-0.5229-0.4521-0.9453-0.9951-1.2666-1.6284
				c-0.3218-0.6333-0.4824-1.4219-0.4824-2.3672c0-0.9648,0.1958-1.7739,0.5879-2.4277c0.3921-0.6528,0.9097-1.1807,1.5532-1.583
				c0.6431-0.4019,1.3765-0.6934,2.2012-0.8745c0.8242-0.1807,1.6782-0.2715,2.5635-0.2715c0.5625,0,1.04,0.0356,1.4321,0.1055
				c0.3921,0.0708,0.8296,0.1865,1.312,0.3472c0.2607,0.0806,0.4771,0.146,0.6484,0.1958c0.1704,0.0503,0.3364,0.0752,0.4976,0.0752
				c0.2412,0,0.4116-0.1001,0.5122-0.3013c0.04-0.0801,0.1157-0.1357,0.2266-0.166c0.1099-0.0303,0.2158-0.04,0.3164-0.0303
				c0.1006,0.0107,0.1909,0.0356,0.2715,0.0757c0.0801,0.0405,0.1104,0.1006,0.0903,0.1807
				c-0.1006,0.3618-0.1655,0.7241-0.1958,1.0859s-0.0454,0.7437-0.0454,1.146c0,0.5229,0.0303,0.9951,0.0903,1.417
				c0.0605,0.4224,0.1104,0.9248,0.1509,1.5078c0,0.0605-0.0405,0.1162-0.1206,0.166c-0.0806,0.0503-0.1763,0.0806-0.2866,0.0903
				c-0.1104,0.0103-0.2158-0.0049-0.3164-0.0454c-0.1011-0.04-0.1611-0.1099-0.1812-0.2109
				c-0.2012-0.8843-0.4219-1.6133-0.6631-2.186c-0.2412-0.5732-0.543-1.0205-0.9048-1.3423
				c-0.3618-0.3213-0.7993-0.5425-1.312-0.6631c-0.5122-0.1206-1.1304-0.1812-1.8545-0.1812c-0.5024,0-0.98,0.0654-1.4321,0.1963
				c-0.4526,0.1309-0.8496,0.3267-1.1914,0.5879s-0.6133,0.5879-0.814,0.98C48.8926,35.3418,48.792,35.7896,48.792,36.2915z"/>
			<path d="M65.4375,47.9316c0,1.126,0.125,1.96,0.377,2.5029s0.709,0.8145,1.373,0.8145c0.4609,0,0.8984-0.0703,1.3105-0.2114
				c0.4121-0.1401,0.7285-0.291,0.9512-0.4521c0.0586-0.04,0.1289-0.0454,0.2109-0.0151c0.0801,0.0303,0.1504,0.0806,0.2109,0.1509
				c0.0605,0.0708,0.1055,0.146,0.1348,0.2261c0.0312,0.0806,0.0254,0.1509-0.0137,0.2109
				c-0.3828,0.6235-0.8809,1.0659-1.4941,1.3271c-0.6133,0.2607-1.332,0.3921-2.1562,0.3921c-1.3667,0-2.3315-0.3066-2.8945-0.9199
				c-0.563-0.6128-0.8442-1.5728-0.8442-2.8799v-7.75c0-0.2412-0.0103-0.4321-0.0303-0.5728s-0.0806-0.2417-0.1807-0.3018
				c-0.1011-0.0605-0.2666-0.0952-0.4976-0.1055c-0.2314-0.0098-0.5581-0.0151-0.98-0.0151c-0.0605,0-0.1108-0.0605-0.1509-0.1812
				c-0.0405-0.1206-0.0654-0.251-0.0757-0.3916s0.0049-0.2715,0.0454-0.3921c0.04-0.1206,0.1006-0.1812,0.1812-0.1812
				c0.502-0.04,0.9346-0.1152,1.2964-0.2261c0.3618-0.1104,0.6685-0.2866,0.9199-0.5278c0.251-0.2412,0.4521-0.5679,0.603-0.98
				c0.1509-0.4116,0.2764-0.9497,0.377-1.6133c0.02-0.1206,0.1006-0.2109,0.2412-0.2715c0.1406-0.0601,0.2915-0.0903,0.4526-0.0903
				c0.1606,0,0.3066,0.0254,0.4375,0.0752c0.1309,0.0503,0.1953,0.1162,0.1953,0.1963v2.5933c0,0.3218,0.0156,0.5078,0.0449,0.5576
				c0.0312,0.0508,0.1562,0.0757,0.377,0.0757h3.1367c0.1406,0,0.2305,0.0806,0.2715,0.2412
				c0.0391,0.1611,0.0605,0.3013,0.0605,0.4219c0,0.1211-0.0254,0.2671-0.0762,0.4375c-0.0508,0.1709-0.1562,0.2563-0.3164,0.2563
				H65.709c-0.1406,0-0.2207,0.0352-0.2402,0.1055c-0.0215,0.0708-0.0312,0.3271-0.0312,0.769V47.9316z"/>
			<path d="M76.1436,48.9268c0,0.5029,0.0146,0.9248,0.0449,1.2666c0.0303,0.3423,0.1357,0.6235,0.3164,0.8442
				c0.1807,0.2217,0.4619,0.3921,0.8447,0.5127c0.3818,0.1206,0.9346,0.2114,1.6582,0.2715
				c0.1211,0.0205,0.2109,0.0752,0.2715,0.166c0.0605,0.0903,0.0908,0.1958,0.0908,0.3164c0,0.1011-0.0303,0.1963-0.0908,0.2866
				s-0.1504,0.1357-0.2715,0.1357c-0.8643,0-1.6279-0.0356-2.292-0.1055c-0.6631-0.0703-1.2969-0.106-1.8994-0.106
				c-0.6436,0-1.2812,0.0356-1.915,0.106c-0.6328,0.0698-1.2715,0.1055-1.915,0.1055c-0.1006,0-0.1807-0.0454-0.2412-0.1357
				s-0.0898-0.1855-0.0898-0.2866c0-0.1206,0.0293-0.2261,0.0898-0.3164c0.0605-0.0908,0.1514-0.1455,0.2715-0.166
				c0.5625-0.0601,1-0.1509,1.3115-0.2715s0.5381-0.2866,0.6787-0.4976s0.2266-0.4722,0.2568-0.7842
				c0.0293-0.311,0.0449-0.6982,0.0449-1.1606v-4.4028c0-0.9849-0.0205-1.7642-0.0605-2.3369
				c-0.04-0.5732-0.1357-1.0151-0.2861-1.3271c-0.1514-0.3115-0.3877-0.5171-0.709-0.6182
				c-0.3213-0.1001-0.7637-0.1704-1.3271-0.2109c-0.1006,0-0.1758-0.0498-0.2256-0.1509c-0.0508-0.1001-0.0752-0.2007-0.0752-0.3013
				s0.0244-0.2012,0.0752-0.3018c0.0498-0.1006,0.1357-0.1509,0.2559-0.1509c0.4023-0.04,0.96-0.0854,1.6738-0.1357
				c0.7139-0.0498,1.4424-0.1758,2.1865-0.377c0.2812-0.0801,0.5127-0.0903,0.6934-0.0303
				c0.1807,0.0605,0.2607,0.2314,0.2412,0.5127l-0.0605,1.9302c0,0.0405,0.0107,0.0654,0.0303,0.0752
				c0.0205,0.0107,0.0498-0.0044,0.0908-0.0449c0.4219-0.8447,0.9395-1.5176,1.5527-2.0205
				c0.6133-0.5024,1.4326-0.7539,2.458-0.7539c0.8447,0,1.4668,0.2163,1.8691,0.6484c0.4023,0.4326,0.6035,0.96,0.6035,1.583
				c0,0.3423-0.1309,0.6533-0.3916,0.9351c-0.2617,0.2817-0.6338,0.4219-1.1162,0.4219c-0.4629,0-0.7842-0.1104-0.9648-0.3315
				s-0.2715-0.4624-0.2715-0.7236c0-0.2812-0.0557-0.5024-0.166-0.6636c-0.1104-0.1606-0.3467-0.2412-0.709-0.2412
				c-0.3818,0-0.7285,0.126-1.04,0.377c-0.3115,0.2515-0.5781,0.5479-0.7988,0.8896c-0.2217,0.3418-0.3926,0.6934-0.5127,1.0552
				c-0.1211,0.3618-0.1807,0.6436-0.1807,0.8447V48.9268z"/>
			<path d="M88.0234,48.9268c0,0.5029,0.0098,0.9248,0.0303,1.2666c0.0195,0.3423,0.0908,0.6235,0.2109,0.8442
				c0.1211,0.2217,0.3066,0.3921,0.5576,0.5127c0.252,0.1206,0.6084,0.2114,1.0713,0.2715c0.1201,0.0205,0.2109,0.0752,0.2715,0.166
				c0.0596,0.0903,0.0898,0.1958,0.0898,0.3164c0,0.1011-0.0303,0.1963-0.0898,0.2866c-0.0605,0.0903-0.1514,0.1357-0.2715,0.1357
				c-0.3623,0-0.835-0.0356-1.418-0.1055c-0.583-0.0703-1.1758-0.106-1.7793-0.106c-0.6436,0-1.2715,0.0356-1.8848,0.106
				c-0.6133,0.0698-1.2012,0.1055-1.7637,0.1055c-0.1006,0-0.1807-0.0454-0.2412-0.1357s-0.0908-0.1855-0.0908-0.2866
				c0-0.1206,0.0303-0.2261,0.0908-0.3164c0.0605-0.0908,0.1504-0.1455,0.2715-0.166c0.5225-0.0601,0.9297-0.1509,1.2207-0.2715
				c0.292-0.1206,0.5029-0.2866,0.6338-0.4976s0.2061-0.4722,0.2266-0.7842c0.0195-0.311,0.0293-0.6982,0.0293-1.1606v-4.855
				c0-0.8643-0.0195-1.5581-0.0596-2.0811c-0.041-0.5225-0.1309-0.9194-0.2715-1.1909c-0.1416-0.2715-0.3525-0.457-0.6338-0.5581
				c-0.2812-0.1001-0.6631-0.1807-1.1455-0.2412c-0.1211,0-0.2109-0.0498-0.2715-0.1509c-0.0605-0.1001-0.0908-0.2007-0.0908-0.3013
				s0.0303-0.2007,0.0908-0.3018c0.0605-0.1001,0.1504-0.1509,0.2715-0.1509c0.2002-0.0195,0.4473-0.04,0.7383-0.0601
				c0.292-0.02,0.5986-0.0454,0.9199-0.0757c0.3213-0.0298,0.6484-0.0698,0.9805-0.1206c0.3311-0.0498,0.6279-0.1055,0.8896-0.1655
				c0.2207-0.04,0.3965-0.0854,0.5273-0.1357c0.1309-0.0498,0.2363-0.0757,0.3164-0.0757c0.2412,0,0.3975,0.0708,0.4678,0.2114
				s0.1055,0.2715,0.1055,0.3921V48.9268z M86.4248,35.5679c-0.502,0-0.9346-0.1553-1.2959-0.4673
				c-0.3623-0.3115-0.543-0.6982-0.543-1.1611c0-0.4624,0.1699-0.854,0.5127-1.1763c0.3418-0.3213,0.7637-0.4824,1.2666-0.4824
				c0.4824,0,0.8789,0.166,1.1904,0.4976c0.3115,0.332,0.4678,0.729,0.4678,1.1914c0,0.4424-0.1504,0.8193-0.4521,1.1309
				C87.2695,35.4126,86.8877,35.5679,86.4248,35.5679z"/>
			<path d="M107.2334,52.7266c-0.3223-0.0205-0.6484-0.0405-0.9805-0.0605s-0.6787-0.0298-1.04-0.0298
				c-0.4023,0-0.7988,0.0146-1.1914,0.0449c-0.3916,0.0303-0.7588,0.0454-1.1006,0.0454c-0.1406,0-0.2412-0.0503-0.3018-0.1509
				s-0.1006-0.1909-0.1201-0.2715c-0.1611-0.8442-0.4277-1.6328-0.7998-2.3672c-0.3721-0.7334-0.7988-1.3818-1.2812-1.9448
				s-1-1.0054-1.5527-1.3271c-0.5537-0.3213-1.1006-0.4824-1.6436-0.4824v2.3521c0,0.5835,0.0098,1.0659,0.0303,1.4478
				c0.0195,0.3818,0.085,0.6934,0.1953,0.9346s0.2871,0.4326,0.5283,0.5732s0.5928,0.2515,1.0557,0.3315
				c0.1201,0.0205,0.2109,0.0806,0.2705,0.1812c0.0605,0.1006,0.0908,0.2012,0.0908,0.3013c0,0.1011-0.0303,0.1963-0.0908,0.2866
				c-0.0596,0.0903-0.1504,0.1357-0.2705,0.1357c-0.5635,0-1.0762-0.0356-1.5381-0.1055c-0.4629-0.0703-0.9951-0.106-1.5986-0.106
				c-0.6436,0-1.2764,0.0356-1.8994,0.106c-0.624,0.0698-1.2568,0.1055-1.9004,0.1055c-0.1006,0-0.1807-0.0454-0.2412-0.1357
				c-0.0596-0.0903-0.0898-0.1855-0.0898-0.2866c0-0.1206,0.0303-0.2261,0.0898-0.3164c0.0605-0.0908,0.1514-0.1455,0.2715-0.166
				c0.5625-0.0601,1-0.1509,1.3115-0.2715s0.5381-0.2866,0.6787-0.4976s0.2217-0.4722,0.2412-0.7842
				c0.0205-0.311,0.0303-0.6982,0.0303-1.1606V37.2568c0-0.8643-0.0205-1.5532-0.0605-2.0659S94.1758,34.2817,93.9951,34
				c-0.1816-0.2812-0.4521-0.4722-0.8145-0.5732c-0.3623-0.1001-0.8643-0.1807-1.5078-0.2412c-0.1006,0-0.1758-0.0498-0.2266-0.1509
				c-0.0498-0.1001-0.0801-0.2007-0.0898-0.3013c-0.0107-0.1006,0.0098-0.2007,0.0605-0.3018
				c0.0498-0.1001,0.1348-0.1509,0.2559-0.1509c0.7236-0.04,1.5225-0.1001,2.3975-0.1807c0.874-0.0801,1.6836-0.231,2.4277-0.4526
				c0.2812-0.0801,0.4668-0.0649,0.5576,0.0454c0.0908,0.1108,0.1455,0.2261,0.166,0.3467v12.8467
				c0.3818-0.2417,0.7432-0.5127,1.085-0.8145s0.6533-0.6128,0.9355-0.9346c0.2812-0.3218,0.543-0.6333,0.7842-0.9351
				s0.4521-0.5625,0.6328-0.7842c0.4023-0.5225,0.5781-0.8994,0.5273-1.1309c-0.0498-0.231-0.3965-0.3662-1.04-0.4067
				c-0.1006,0-0.1807-0.0503-0.2412-0.1509s-0.0908-0.2007-0.0908-0.3018c0-0.1206,0.0303-0.2261,0.0908-0.3164
				c0.0605-0.0908,0.1406-0.1357,0.2412-0.1357c0.3213,0,0.5977,0.0103,0.8291,0.0303s0.4424,0.0449,0.6338,0.0752
				c0.1904,0.0303,0.377,0.0557,0.5576,0.0752c0.1807,0.0205,0.3916,0.0303,0.6328,0.0303c0.4629,0,0.9355-0.0347,1.418-0.1055
				c0.4824-0.0703,0.9541-0.1055,1.417-0.1055c0.0801,0,0.1514,0.0449,0.2109,0.1357c0.0605,0.0903,0.0908,0.1958,0.0908,0.3164
				c0,0.1011-0.0254,0.1963-0.0752,0.2866c-0.0508,0.0903-0.126,0.146-0.2266,0.166c-0.4023,0.0405-0.7344,0.1006-0.9951,0.1807
				c-0.2617,0.0806-0.5029,0.1914-0.7236,0.3315c-0.2217,0.1411-0.4326,0.3071-0.6328,0.4976
				c-0.2012,0.1914-0.4434,0.4175-0.7246,0.6787c-0.1807,0.1611-0.4219,0.3823-0.7236,0.6636
				c-0.3008,0.2817-0.6279,0.5781-0.9795,0.8896c-0.3525,0.3115-0.6934,0.6079-1.0254,0.8896s-0.6182,0.5122-0.8594,0.6934
				c-0.0811,0.0601-0.1113,0.1206-0.0908,0.1812c0.0195,0.0601,0.0605,0.0903,0.1211,0.0903
				c0.8037,0.0405,1.4717,0.1763,2.0049,0.4072c0.5322,0.231,0.9805,0.5229,1.3418,0.8745c0.3623,0.3516,0.668,0.749,0.9199,1.1909
				c0.251,0.4424,0.502,0.8999,0.7539,1.3721c0.251,0.4727,0.5322,0.9351,0.8447,1.3872c0.3115,0.4521,0.708,0.8696,1.1904,1.2515
				c0.1406,0.1006,0.3174,0.1807,0.5283,0.2412s0.4268,0.1011,0.6484,0.1206c0.1201,0,0.2109,0.0503,0.2715,0.1509
				c0.0596,0.1006,0.0898,0.2109,0.0898,0.3315c0,0.1011-0.0303,0.1963-0.0898,0.2866
				C107.4443,52.6812,107.3535,52.7266,107.2334,52.7266z"/>
			<path d="M123.7578,52.7266c-0.3223-0.0205-0.6484-0.0405-0.9805-0.0605s-0.6787-0.0298-1.04-0.0298
				c-0.4023,0-0.7988,0.0146-1.1914,0.0449c-0.3916,0.0303-0.7588,0.0454-1.1006,0.0454c-0.1406,0-0.2412-0.0503-0.3018-0.1509
				s-0.1006-0.1909-0.1201-0.2715c-0.1611-0.8442-0.4277-1.6328-0.7998-2.3672c-0.3721-0.7334-0.7988-1.3818-1.2812-1.9448
				s-1-1.0054-1.5527-1.3271c-0.5537-0.3213-1.1006-0.4824-1.6436-0.4824v2.3521c0,0.5835,0.0098,1.0659,0.0303,1.4478
				c0.0195,0.3818,0.085,0.6934,0.1953,0.9346s0.2871,0.4326,0.5283,0.5732s0.5928,0.2515,1.0557,0.3315
				c0.1201,0.0205,0.2109,0.0806,0.2705,0.1812c0.0605,0.1006,0.0908,0.2012,0.0908,0.3013c0,0.1011-0.0303,0.1963-0.0908,0.2866
				c-0.0596,0.0903-0.1504,0.1357-0.2705,0.1357c-0.5635,0-1.0762-0.0356-1.5381-0.1055c-0.4629-0.0703-0.9951-0.106-1.5986-0.106
				c-0.6436,0-1.2764,0.0356-1.8994,0.106c-0.624,0.0698-1.2568,0.1055-1.9004,0.1055c-0.1006,0-0.1807-0.0454-0.2412-0.1357
				c-0.0596-0.0903-0.0898-0.1855-0.0898-0.2866c0-0.1206,0.0303-0.2261,0.0898-0.3164c0.0605-0.0908,0.1514-0.1455,0.2715-0.166
				c0.5625-0.0601,1-0.1509,1.3115-0.2715s0.5381-0.2866,0.6787-0.4976s0.2217-0.4722,0.2412-0.7842
				c0.0205-0.311,0.0303-0.6982,0.0303-1.1606V37.2568c0-0.8643-0.0205-1.5532-0.0605-2.0659s-0.1504-0.9092-0.3311-1.1909
				c-0.1816-0.2812-0.4521-0.4722-0.8145-0.5732c-0.3623-0.1001-0.8643-0.1807-1.5078-0.2412c-0.1006,0-0.1758-0.0498-0.2266-0.1509
				c-0.0498-0.1001-0.0801-0.2007-0.0898-0.3013c-0.0107-0.1006,0.0098-0.2007,0.0605-0.3018
				c0.0498-0.1001,0.1348-0.1509,0.2559-0.1509c0.7236-0.04,1.5225-0.1001,2.3975-0.1807c0.874-0.0801,1.6836-0.231,2.4277-0.4526
				c0.2812-0.0801,0.4668-0.0649,0.5576,0.0454c0.0908,0.1108,0.1455,0.2261,0.166,0.3467v12.8467
				c0.3818-0.2417,0.7432-0.5127,1.085-0.8145s0.6533-0.6128,0.9355-0.9346c0.2812-0.3218,0.543-0.6333,0.7842-0.9351
				s0.4521-0.5625,0.6328-0.7842c0.4023-0.5225,0.5781-0.8994,0.5273-1.1309c-0.0498-0.231-0.3965-0.3662-1.04-0.4067
				c-0.1006,0-0.1807-0.0503-0.2412-0.1509s-0.0908-0.2007-0.0908-0.3018c0-0.1206,0.0303-0.2261,0.0908-0.3164
				c0.0605-0.0908,0.1406-0.1357,0.2412-0.1357c0.3213,0,0.5977,0.0103,0.8291,0.0303s0.4424,0.0449,0.6338,0.0752
				c0.1904,0.0303,0.377,0.0557,0.5576,0.0752c0.1807,0.0205,0.3916,0.0303,0.6328,0.0303c0.4629,0,0.9355-0.0347,1.418-0.1055
				c0.4824-0.0703,0.9541-0.1055,1.417-0.1055c0.0801,0,0.1514,0.0449,0.2109,0.1357c0.0605,0.0903,0.0908,0.1958,0.0908,0.3164
				c0,0.1011-0.0254,0.1963-0.0752,0.2866c-0.0508,0.0903-0.126,0.146-0.2266,0.166c-0.4023,0.0405-0.7344,0.1006-0.9951,0.1807
				c-0.2617,0.0806-0.5029,0.1914-0.7236,0.3315c-0.2217,0.1411-0.4326,0.3071-0.6328,0.4976
				c-0.2012,0.1914-0.4434,0.4175-0.7246,0.6787c-0.1807,0.1611-0.4219,0.3823-0.7236,0.6636
				c-0.3008,0.2817-0.6279,0.5781-0.9795,0.8896c-0.3525,0.3115-0.6934,0.6079-1.0254,0.8896s-0.6182,0.5122-0.8594,0.6934
				c-0.0811,0.0601-0.1113,0.1206-0.0908,0.1812c0.0195,0.0601,0.0605,0.0903,0.1211,0.0903
				c0.8037,0.0405,1.4717,0.1763,2.0049,0.4072c0.5322,0.231,0.9805,0.5229,1.3418,0.8745c0.3623,0.3516,0.668,0.749,0.9199,1.1909
				c0.251,0.4424,0.502,0.8999,0.7539,1.3721c0.251,0.4727,0.5322,0.9351,0.8447,1.3872c0.3115,0.4521,0.708,0.8696,1.1904,1.2515
				c0.1406,0.1006,0.3174,0.1807,0.5283,0.2412s0.4268,0.1011,0.6484,0.1206c0.1201,0,0.2109,0.0503,0.2715,0.1509
				c0.0596,0.1006,0.0898,0.2109,0.0898,0.3315c0,0.1011-0.0303,0.1963-0.0898,0.2866
				C123.9688,52.6812,123.8779,52.7266,123.7578,52.7266z"/>
		</g>
		<g>
			<path d="M68.5547,64.2744c0,1.2266-0.1699,2.3125-0.5117,3.2568c-0.3418,0.9453-0.8301,1.7393-1.4629,2.3828
				s-1.3926,1.1309-2.2769,1.4619c-0.8848,0.332-1.8696,0.498-2.9551,0.498c-0.9453,0-1.8198-0.1562-2.6235-0.4678
				c-0.8042-0.3115-1.498-0.7734-2.0806-1.3867c-0.5835-0.6133-1.0459-1.3877-1.3872-2.3223
				c-0.3423-0.9346-0.5127-2.0352-0.5127-3.3022c0-1.0249,0.1704-1.9648,0.5127-2.8193c0.3413-0.8545,0.8188-1.583,1.4321-2.1865
				c0.6133-0.603,1.3521-1.0752,2.2168-1.417c0.8638-0.3418,1.8091-0.5127,2.8345-0.5127c0.9849,0,1.8945,0.1509,2.729,0.4521
				c0.8335,0.3018,1.5522,0.7388,2.1558,1.312c0.6035,0.5728,1.0762,1.2817,1.418,2.126S68.5547,63.1694,68.5547,64.2744z
				 M65.3887,64.6064c0-0.7642-0.0508-1.5078-0.1504-2.2314c-0.1016-0.7241-0.2817-1.3672-0.543-1.9302
				c-0.2612-0.5625-0.623-1.0151-1.0854-1.3569c-0.4629-0.3418-1.0557-0.5127-1.7793-0.5127c-0.8042,0-1.458,0.1709-1.96,0.5127
				c-0.5029,0.3418-0.8999,0.7988-1.1914,1.3721c-0.2915,0.5728-0.4927,1.2212-0.603,1.9448
				c-0.1108,0.7241-0.1655,1.478-0.1655,2.2617c0,0.6831,0.0498,1.3872,0.1504,2.1108s0.2915,1.377,0.5732,1.96
				c0.2812,0.584,0.668,1.0664,1.1606,1.4482s1.1206,0.5723,1.8848,0.5723c0.7842,0,1.4175-0.1807,1.8999-0.543
				c0.4824-0.3613,0.8594-0.834,1.1309-1.417s0.4517-1.2412,0.5435-1.9756C65.3438,66.0889,65.3887,65.3496,65.3887,64.6064z"/>
			<path d="M82.3359,59.8721c0.2822,0.4219,0.4873,0.8696,0.6182,1.3418c0.1309,0.4727,0.2061,0.9497,0.2266,1.4321
				c0,0.8853-0.166,1.6641-0.4971,2.3374c-0.332,0.6738-0.7842,1.2412-1.3574,1.7041c-0.5732,0.4619-1.2314,0.8135-1.9756,1.0547
				c-0.7432,0.2412-1.5371,0.3623-2.3818,0.3623c-0.2412,0-0.5537,0.0098-0.9346,0.0303c-0.3828,0.0195-0.7539,0.0605-1.1162,0.1201
				c-0.3613,0.0605-0.6689,0.1562-0.9199,0.2871s-0.377,0.3164-0.377,0.5576c0,0.1807,0.1006,0.332,0.3018,0.4521
				c0.2012,0.1211,0.4473,0.2168,0.7393,0.2861c0.291,0.0713,0.582,0.1211,0.874,0.1514c0.291,0.0303,0.5283,0.0449,0.709,0.0449
				c1.4473,0.1006,2.7441,0.2266,3.8896,0.377c1.1465,0.1514,2.1162,0.3975,2.9102,0.7393s1.4023,0.8184,1.8242,1.4316
				c0.4229,0.6133,0.6338,1.4121,0.6338,2.3975c0,0.8643-0.1709,1.6689-0.5127,2.4131c-0.3418,0.7432-0.8545,1.3867-1.5381,1.9297
				s-1.5225,0.9697-2.5176,1.2812s-2.1465,0.4678-3.4531,0.4678c-1.0859,0-2.0811-0.0957-2.9854-0.2861
				c-0.9053-0.1914-1.6846-0.4883-2.3369-0.8896c-0.6543-0.4023-1.1562-0.915-1.5078-1.5381
				c-0.3525-0.623-0.5283-1.3672-0.5283-2.2314c0-0.5029,0.0703-0.9609,0.2109-1.3721c0.1406-0.4121,0.332-0.7793,0.5732-1.1006
				c0.2412-0.3223,0.5127-0.6084,0.8145-0.8594c0.3018-0.252,0.6133-0.458,0.9346-0.6182
				c-0.4629-0.1611-0.8848-0.3877-1.2666-0.6787s-0.5723-0.7588-0.5723-1.4023c0-0.4619,0.1055-0.8545,0.3164-1.1758
				s0.4922-0.583,0.8438-0.7842s0.7441-0.3467,1.1768-0.4375c0.4316-0.0908,0.8594-0.1455,1.2812-0.166
				c0.0195,0,0.0303-0.0098,0.0303-0.0303c0-0.0195-0.0107-0.0303-0.0303-0.0303c-1.0254-0.4014-1.8291-0.959-2.4121-1.6729
				c-0.584-0.7139-0.875-1.6738-0.875-2.8804c0-0.8242,0.1514-1.5728,0.4521-2.2466c0.3018-0.6733,0.7285-1.2461,1.2822-1.7188
				c0.5527-0.4722,1.2207-0.8394,2.0049-1.1006s1.6484-0.3921,2.5938-0.3921c1.0654,0,1.915,0.1509,2.5479,0.4521
				c0.6338,0.3018,1.2109,0.6938,1.7344,1.1763c0.3818-0.3818,0.834-0.7036,1.3564-0.9648s1.1055-0.3921,1.749-0.3921
				c0.2217,0,0.4678,0.02,0.7393,0.0601c0.2715,0.0405,0.5225,0.1162,0.7539,0.2261c0.2305,0.1108,0.4219,0.2563,0.5732,0.4375
				c0.1504,0.1807,0.2256,0.4224,0.2256,0.7236c0,0.3423-0.0898,0.6484-0.2715,0.9199c-0.1807,0.2715-0.5322,0.4072-1.0557,0.4072
				c-0.3818,0-0.6328-0.0806-0.7539-0.2417c-0.1201-0.1606-0.2109-0.3315-0.2705-0.5122c-0.0605-0.1812-0.1318-0.3516-0.2119-0.5127
				c-0.0801-0.1606-0.2715-0.2412-0.5723-0.2412c-0.3223,0-0.6436,0.0806-0.9648,0.2412
				C82.7383,59.3999,82.4971,59.6108,82.3359,59.8721z M74.1641,72.5068c-0.3418,0.2812-0.6133,0.6836-0.8145,1.2061
				c-0.2012,0.5234-0.3008,1.0459-0.3008,1.5684c0,0.7441,0.1553,1.3916,0.4668,1.9453c0.3115,0.5527,0.7188,1.0146,1.2217,1.3867
				c0.502,0.3721,1.0801,0.6484,1.7334,0.8301c0.6533,0.1807,1.3223,0.2705,2.0059,0.2705c0.6025,0,1.1709-0.1006,1.7041-0.3008
				c0.5322-0.2012,0.999-0.4727,1.4014-0.8145s0.7246-0.7441,0.9658-1.2061c0.2412-0.4629,0.3613-0.9648,0.3613-1.5078
				c0-0.6836-0.2256-1.2363-0.6787-1.6592c-0.4521-0.4219-1.0703-0.7539-1.8545-0.9951s-1.709-0.4121-2.7744-0.5127
				S75.3906,72.5469,74.1641,72.5068z M77.0596,66.9883c1.0449,0,1.7939-0.3408,2.2461-1.0254
				c0.4521-0.6826,0.6787-1.6777,0.6787-2.9849c0-0.6636-0.0352-1.2666-0.1055-1.8096c-0.0713-0.5425-0.207-1.0103-0.4072-1.4023
				c-0.2012-0.3916-0.4678-0.6934-0.7988-0.9043c-0.332-0.2114-0.7598-0.3169-1.2822-0.3169c-0.6436,0-1.1611,0.1357-1.5527,0.4072
				s-0.6992,0.6182-0.9199,1.0405c-0.2217,0.4219-0.3721,0.8945-0.4521,1.417c-0.0811,0.5229-0.1211,1.0356-0.1211,1.5381
				c0,1.3267,0.2314,2.3325,0.6943,3.0151C75.501,66.6475,76.1738,66.9883,77.0596,66.9883z"/>
		</g>
		<g>
			<path d="M54.7188,83.4756c0-0.4424-0.0151-0.875-0.0449-1.2969c-0.0303-0.4219-0.0957-0.8145-0.1963-1.1758
				c-0.1006-0.3623-0.2563-0.6738-0.4673-0.9355c-0.2109-0.2607-0.4976-0.4414-0.8594-0.542
				c-0.2217-0.0605-0.4526-0.1104-0.6938-0.1514c-0.2412-0.04-0.4727-0.0703-0.6934-0.0898c-0.1206,0-0.2109-0.0508-0.2715-0.1514
				s-0.0903-0.2109-0.0903-0.332c0-0.1201,0.0298-0.2305,0.0903-0.3311s0.1509-0.1514,0.2715-0.1514
				c0.6831,0,1.2964,0.0205,1.8394,0.0605c0.543,0.041,1.1763,0.0605,1.8999,0.0605c0.8242,0,1.6382-0.0156,2.4424-0.0449
				c0.8042-0.0303,1.6182-0.0557,2.4429-0.0762c1.6479,0,3.1709,0.2617,4.5684,0.7842c1.397,0.5234,2.5981,1.252,3.604,2.1865
				c1.0039,0.9346,1.7949,2.0508,2.3672,3.3477c0.5723,1.2959,0.8594,2.709,0.8594,4.2363c0,1.6885-0.2715,3.1562-0.8145,4.4033
				c-0.543,1.2461-1.2871,2.2871-2.2305,3.1211c-0.9453,0.834-2.0664,1.4521-3.3633,1.8545s-2.6987,0.6025-4.2065,0.6025
				c-0.9048,0-1.7847-0.04-2.6387-0.1201c-0.855-0.0801-1.624-0.1211-2.3071-0.1211c-0.4219,0-0.8042,0.0059-1.146,0.0156
				s-0.6738,0.0254-0.9951,0.0449c-0.3218,0.0195-0.6484,0.0498-0.98,0.0908c-0.3315,0.04-0.6987,0.0801-1.1006,0.1201
				c-0.1206,0.0195-0.2163-0.0205-0.2866-0.1201c-0.0708-0.1006-0.1157-0.2119-0.1357-0.332
				c-0.02-0.1211,0.0049-0.2412,0.0757-0.3623c0.0698-0.1201,0.1855-0.1904,0.3467-0.2109c0.4824-0.0605,0.894-0.1455,1.2363-0.2559
				c0.3418-0.1104,0.623-0.2666,0.8442-0.4678c0.2212-0.2002,0.3818-0.4619,0.4824-0.7842
				c0.1006-0.3213,0.1509-0.7432,0.1509-1.2666V83.4756z M58.0059,93.0049c0,1.0049,0.0454,1.8047,0.1357,2.3975
				s0.2661,1.04,0.5278,1.3418c0.2607,0.3018,0.6377,0.4971,1.1309,0.5879c0.4922,0.0908,1.1504,0.1357,1.9751,0.1357
				c0.9048,0,1.7339-0.1914,2.4878-0.5732c0.7544-0.3818,1.4028-0.9395,1.9458-1.6738c0.541-0.7334,0.9648-1.6328,1.2656-2.6982
				s0.4531-2.292,0.4531-3.6797c0-1.4668-0.1523-2.7686-0.4531-3.9053c-0.3008-1.1348-0.7949-2.0898-1.4785-2.8643
				c-0.6826-0.7734-1.5928-1.3574-2.728-1.749c-1.1362-0.3926-2.5283-0.5879-4.1768-0.5879c-0.4023,0-0.6836,0.0703-0.8442,0.2109
				c-0.1611,0.1406-0.2412,0.4121-0.2412,0.8145V93.0049z"/>
			<path d="M78.6934,95.0254c0,0.502,0.0146,0.9248,0.0449,1.2666s0.1357,0.623,0.3164,0.8438
				c0.1807,0.2217,0.4619,0.3926,0.8447,0.5127c0.3818,0.1211,0.9346,0.2109,1.6582,0.2715
				c0.1211,0.0205,0.2109,0.0752,0.2715,0.166c0.0605,0.0898,0.0908,0.1963,0.0908,0.3164c0,0.1006-0.0303,0.1963-0.0908,0.2861
				c-0.0605,0.0908-0.1504,0.1357-0.2715,0.1357c-0.8643,0-1.6279-0.0352-2.292-0.1055c-0.6631-0.0703-1.2969-0.1055-1.8994-0.1055
				c-0.6436,0-1.2812,0.0352-1.915,0.1055c-0.6328,0.0703-1.2715,0.1055-1.915,0.1055c-0.1006,0-0.1807-0.0449-0.2412-0.1357
				c-0.0605-0.0898-0.0898-0.1855-0.0898-0.2861c0-0.1201,0.0293-0.2266,0.0898-0.3164c0.0605-0.0908,0.1514-0.1455,0.2715-0.166
				c0.5625-0.0605,1-0.1504,1.3115-0.2715c0.3115-0.1201,0.5381-0.2861,0.6787-0.4971c0.1406-0.2119,0.2266-0.4727,0.2568-0.7842
				c0.0293-0.3115,0.0449-0.6982,0.0449-1.1611v-4.4033c0-0.9844-0.0205-1.7637-0.0605-2.3369
				c-0.04-0.5723-0.1357-1.0146-0.2861-1.3262c-0.1514-0.3115-0.3877-0.5176-0.709-0.6182s-0.7637-0.1709-1.3271-0.2119
				c-0.1006,0-0.1758-0.0498-0.2256-0.1504c-0.0508-0.1006-0.0752-0.2002-0.0752-0.3018c0-0.1006,0.0244-0.2002,0.0752-0.3018
				c0.0498-0.0996,0.1357-0.1504,0.2559-0.1504c0.4023-0.04,0.96-0.085,1.6738-0.1357c0.7139-0.0498,1.4424-0.1758,2.1865-0.377
				c0.2812-0.0801,0.5127-0.0908,0.6934-0.0303s0.2607,0.2314,0.2412,0.5127l-0.0605,1.9297c0,0.041,0.0107,0.0664,0.0303,0.0762
				c0.0205,0.0098,0.0498-0.0049,0.0908-0.0459c0.4219-0.8438,0.9395-1.5176,1.5527-2.0205c0.6133-0.502,1.4326-0.7539,2.458-0.7539
				c0.8447,0,1.4668,0.2168,1.8691,0.6484c0.4023,0.4326,0.6035,0.9609,0.6035,1.584c0,0.3418-0.1309,0.6533-0.3916,0.9346
				c-0.2617,0.2812-0.6338,0.4219-1.1162,0.4219c-0.4629,0-0.7842-0.1104-0.9648-0.332c-0.1807-0.2207-0.2715-0.4619-0.2715-0.7236
				c0-0.2812-0.0557-0.502-0.166-0.6631s-0.3467-0.2412-0.709-0.2412c-0.3818,0-0.7285,0.126-1.04,0.377
				c-0.3115,0.252-0.5781,0.5479-0.7988,0.8896c-0.2217,0.3418-0.3926,0.6934-0.5127,1.0557
				c-0.1211,0.3613-0.1807,0.6436-0.1807,0.8438V95.0254z"/>
			<path d="M90.5732,95.0254c0,0.502,0.0098,0.9248,0.0303,1.2666c0.0195,0.3418,0.0908,0.623,0.2109,0.8438
				c0.1211,0.2217,0.3066,0.3926,0.5576,0.5127c0.252,0.1211,0.6084,0.2109,1.0713,0.2715c0.1201,0.0205,0.2109,0.0752,0.2715,0.166
				c0.0596,0.0898,0.0898,0.1963,0.0898,0.3164c0,0.1006-0.0303,0.1963-0.0898,0.2861c-0.0605,0.0908-0.1514,0.1357-0.2715,0.1357
				c-0.3623,0-0.835-0.0352-1.418-0.1055s-1.1758-0.1055-1.7793-0.1055c-0.6436,0-1.2715,0.0352-1.8848,0.1055
				s-1.2012,0.1055-1.7637,0.1055c-0.1006,0-0.1807-0.0449-0.2412-0.1357c-0.0605-0.0898-0.0908-0.1855-0.0908-0.2861
				c0-0.1201,0.0303-0.2266,0.0908-0.3164c0.0605-0.0908,0.1504-0.1455,0.2715-0.166c0.5225-0.0605,0.9297-0.1504,1.2207-0.2715
				c0.292-0.1201,0.5029-0.2861,0.6338-0.4971c0.1309-0.2119,0.2061-0.4727,0.2266-0.7842
				c0.0195-0.3115,0.0293-0.6982,0.0293-1.1611v-4.8555c0-0.8643-0.0195-1.5576-0.0596-2.0801
				c-0.041-0.5225-0.1309-0.9199-0.2715-1.1914c-0.1416-0.2715-0.3525-0.457-0.6338-0.5576s-0.6631-0.1816-1.1455-0.2412
				c-0.1211,0-0.2109-0.0508-0.2715-0.1514s-0.0908-0.2002-0.0908-0.3018c0-0.0996,0.0303-0.2002,0.0908-0.3008
				s0.1504-0.1514,0.2715-0.1514c0.2002-0.0195,0.4473-0.04,0.7383-0.0605c0.292-0.0195,0.5986-0.0449,0.9199-0.0752
				s0.6484-0.0703,0.9805-0.1201c0.3311-0.0498,0.6279-0.1055,0.8896-0.166c0.2207-0.04,0.3965-0.085,0.5273-0.1357
				c0.1309-0.0498,0.2363-0.0752,0.3164-0.0752c0.2412,0,0.3975,0.0703,0.4678,0.2109s0.1055,0.2715,0.1055,0.3916V95.0254z
				 M88.9746,81.666c-0.502,0-0.9346-0.1553-1.2959-0.4678c-0.3623-0.3115-0.543-0.6982-0.543-1.1602
				c0-0.4629,0.1699-0.8545,0.5127-1.1768c0.3418-0.3213,0.7637-0.4824,1.2666-0.4824c0.4824,0,0.8789,0.166,1.1904,0.498
				c0.3115,0.3311,0.4678,0.7285,0.4678,1.1904c0,0.4424-0.1504,0.8193-0.4521,1.1309
				C89.8193,81.5107,89.4375,81.666,88.9746,81.666z"/>
			<path d="M109.7832,98.8242c-0.3223-0.0195-0.6484-0.04-0.9805-0.0596c-0.332-0.0205-0.6787-0.0303-1.04-0.0303
				c-0.4023,0-0.7988,0.0146-1.1914,0.0449c-0.3916,0.0303-0.7588,0.0449-1.1006,0.0449c-0.1406,0-0.2412-0.0498-0.3018-0.1504
				s-0.1006-0.1904-0.1201-0.2715c-0.1611-0.8447-0.4277-1.6328-0.7998-2.3672c-0.3721-0.7334-0.7988-1.3818-1.2812-1.9453
				c-0.4824-0.5625-1-1.0049-1.5527-1.3262c-0.5537-0.3213-1.1006-0.4824-1.6436-0.4824v2.3516c0,0.583,0.0098,1.0664,0.0303,1.4473
				c0.0195,0.3828,0.085,0.6943,0.1953,0.9355s0.2871,0.4326,0.5283,0.5723c0.2412,0.1416,0.5928,0.252,1.0557,0.332
				c0.1201,0.0205,0.2109,0.0811,0.2705,0.1807c0.0605,0.1016,0.0908,0.2012,0.0908,0.3018s-0.0303,0.1963-0.0908,0.2861
				c-0.0596,0.0908-0.1504,0.1357-0.2705,0.1357c-0.5635,0-1.0762-0.0352-1.5381-0.1055c-0.4629-0.0703-0.9951-0.1055-1.5986-0.1055
				c-0.6436,0-1.2764,0.0352-1.8994,0.1055c-0.624,0.0703-1.2568,0.1055-1.9004,0.1055c-0.1006,0-0.1807-0.0449-0.2412-0.1357
				c-0.0596-0.0898-0.0898-0.1855-0.0898-0.2861c0-0.1201,0.0303-0.2266,0.0898-0.3164c0.0605-0.0908,0.1514-0.1455,0.2715-0.166
				c0.5625-0.0605,1-0.1504,1.3115-0.2715c0.3115-0.1201,0.5381-0.2861,0.6787-0.4971c0.1406-0.2119,0.2217-0.4727,0.2412-0.7842
				c0.0205-0.3115,0.0303-0.6982,0.0303-1.1611V83.3545c0-0.8643-0.0205-1.5527-0.0605-2.0654s-0.1504-0.9092-0.3311-1.1914
				c-0.1816-0.2812-0.4521-0.4717-0.8145-0.5723s-0.8643-0.1816-1.5078-0.2412c-0.1006,0-0.1758-0.0508-0.2266-0.1514
				c-0.0498-0.1006-0.0801-0.2002-0.0898-0.3018c-0.0107-0.0996,0.0098-0.2002,0.0605-0.3008
				c0.0498-0.1006,0.1348-0.1514,0.2559-0.1514c0.7236-0.04,1.5225-0.1006,2.3975-0.1807c0.874-0.0801,1.6836-0.2314,2.4277-0.4521
				c0.2812-0.0801,0.4668-0.0654,0.5576,0.0449s0.1455,0.2266,0.166,0.3467v12.8467c0.3818-0.2412,0.7432-0.5127,1.085-0.8145
				s0.6533-0.6133,0.9355-0.9346c0.2812-0.3213,0.543-0.6338,0.7842-0.9355c0.2412-0.3008,0.4521-0.5625,0.6328-0.7832
				c0.4023-0.5225,0.5781-0.8994,0.5273-1.1309c-0.0498-0.2314-0.3965-0.3672-1.04-0.4072c-0.1006,0-0.1807-0.0498-0.2412-0.1514
				c-0.0605-0.0996-0.0908-0.2002-0.0908-0.3008c0-0.1211,0.0303-0.2266,0.0908-0.3174c0.0605-0.0898,0.1406-0.1357,0.2412-0.1357
				c0.3213,0,0.5977,0.0107,0.8291,0.0303c0.2314,0.0205,0.4424,0.0459,0.6338,0.0752c0.1904,0.0303,0.377,0.0557,0.5576,0.0762
				c0.1807,0.0195,0.3916,0.0303,0.6328,0.0303c0.4629,0,0.9355-0.0352,1.418-0.1064c0.4824-0.0693,0.9541-0.1055,1.417-0.1055
				c0.0801,0,0.1514,0.0459,0.2109,0.1357c0.0605,0.0908,0.0908,0.1963,0.0908,0.3174c0,0.1006-0.0254,0.1953-0.0752,0.2861
				c-0.0508,0.0908-0.126,0.1465-0.2266,0.166c-0.4023,0.04-0.7344,0.1006-0.9951,0.1807c-0.2617,0.0811-0.5029,0.1914-0.7236,0.332
				c-0.2217,0.1406-0.4326,0.3066-0.6328,0.4971c-0.2012,0.1914-0.4434,0.418-0.7246,0.6787
				c-0.1807,0.1611-0.4219,0.3818-0.7236,0.6631c-0.3008,0.2822-0.6279,0.5781-0.9795,0.8896
				c-0.3525,0.3125-0.6934,0.6084-1.0254,0.8896c-0.332,0.2822-0.6182,0.5127-0.8594,0.6934
				c-0.0811,0.0605-0.1113,0.1211-0.0908,0.1816c0.0195,0.0605,0.0605,0.0898,0.1211,0.0898
				c0.8037,0.041,1.4717,0.1768,2.0049,0.4072c0.5322,0.2314,0.9805,0.5234,1.3418,0.875c0.3623,0.3516,0.668,0.749,0.9199,1.1914
				c0.251,0.4424,0.502,0.8994,0.7539,1.3721c0.251,0.4717,0.5322,0.9346,0.8447,1.3867c0.3115,0.4521,0.708,0.8701,1.1904,1.251
				c0.1406,0.1016,0.3174,0.1816,0.5283,0.2412c0.2109,0.0605,0.4268,0.1016,0.6484,0.1211c0.1201,0,0.2109,0.0508,0.2715,0.1504
				c0.0596,0.1016,0.0898,0.2119,0.0898,0.332c0,0.1006-0.0303,0.1963-0.0898,0.2861
				C109.9941,98.7793,109.9033,98.8242,109.7832,98.8242z"/>
			<path d="M126.3076,98.8242c-0.3223-0.0195-0.6484-0.04-0.9805-0.0596c-0.332-0.0205-0.6787-0.0303-1.04-0.0303
				c-0.4023,0-0.7988,0.0146-1.1914,0.0449c-0.3916,0.0303-0.7588,0.0449-1.1006,0.0449c-0.1406,0-0.2412-0.0498-0.3018-0.1504
				s-0.1006-0.1904-0.1201-0.2715c-0.1611-0.8447-0.4277-1.6328-0.7998-2.3672c-0.3721-0.7334-0.7988-1.3818-1.2812-1.9453
				c-0.4824-0.5625-1-1.0049-1.5527-1.3262c-0.5537-0.3213-1.1006-0.4824-1.6436-0.4824v2.3516c0,0.583,0.0098,1.0664,0.0303,1.4473
				c0.0195,0.3828,0.085,0.6943,0.1953,0.9355s0.2871,0.4326,0.5283,0.5723c0.2412,0.1416,0.5928,0.252,1.0557,0.332
				c0.1201,0.0205,0.2109,0.0811,0.2705,0.1807c0.0605,0.1016,0.0908,0.2012,0.0908,0.3018s-0.0303,0.1963-0.0908,0.2861
				c-0.0596,0.0908-0.1504,0.1357-0.2705,0.1357c-0.5635,0-1.0762-0.0352-1.5381-0.1055c-0.4629-0.0703-0.9951-0.1055-1.5986-0.1055
				c-0.6436,0-1.2764,0.0352-1.8994,0.1055c-0.624,0.0703-1.2568,0.1055-1.9004,0.1055c-0.1006,0-0.1807-0.0449-0.2412-0.1357
				c-0.0596-0.0898-0.0898-0.1855-0.0898-0.2861c0-0.1201,0.0303-0.2266,0.0898-0.3164c0.0605-0.0908,0.1514-0.1455,0.2715-0.166
				c0.5625-0.0605,1-0.1504,1.3115-0.2715c0.3115-0.1201,0.5381-0.2861,0.6787-0.4971c0.1406-0.2119,0.2217-0.4727,0.2412-0.7842
				c0.0205-0.3115,0.0303-0.6982,0.0303-1.1611V83.3545c0-0.8643-0.0205-1.5527-0.0605-2.0654s-0.1504-0.9092-0.3311-1.1914
				c-0.1816-0.2812-0.4521-0.4717-0.8145-0.5723s-0.8643-0.1816-1.5078-0.2412c-0.1006,0-0.1758-0.0508-0.2266-0.1514
				c-0.0498-0.1006-0.0801-0.2002-0.0898-0.3018c-0.0107-0.0996,0.0098-0.2002,0.0605-0.3008
				c0.0498-0.1006,0.1348-0.1514,0.2559-0.1514c0.7236-0.04,1.5225-0.1006,2.3975-0.1807c0.874-0.0801,1.6836-0.2314,2.4277-0.4521
				c0.2812-0.0801,0.4668-0.0654,0.5576,0.0449s0.1455,0.2266,0.166,0.3467v12.8467c0.3818-0.2412,0.7432-0.5127,1.085-0.8145
				s0.6533-0.6133,0.9355-0.9346c0.2812-0.3213,0.543-0.6338,0.7842-0.9355c0.2412-0.3008,0.4521-0.5625,0.6328-0.7832
				c0.4023-0.5225,0.5781-0.8994,0.5273-1.1309c-0.0498-0.2314-0.3965-0.3672-1.04-0.4072c-0.1006,0-0.1807-0.0498-0.2412-0.1514
				c-0.0605-0.0996-0.0908-0.2002-0.0908-0.3008c0-0.1211,0.0303-0.2266,0.0908-0.3174c0.0605-0.0898,0.1406-0.1357,0.2412-0.1357
				c0.3213,0,0.5977,0.0107,0.8291,0.0303c0.2314,0.0205,0.4424,0.0459,0.6338,0.0752c0.1904,0.0303,0.377,0.0557,0.5576,0.0762
				c0.1807,0.0195,0.3916,0.0303,0.6328,0.0303c0.4629,0,0.9355-0.0352,1.418-0.1064c0.4824-0.0693,0.9541-0.1055,1.417-0.1055
				c0.0801,0,0.1514,0.0459,0.2109,0.1357c0.0605,0.0908,0.0908,0.1963,0.0908,0.3174c0,0.1006-0.0254,0.1953-0.0752,0.2861
				c-0.0508,0.0908-0.126,0.1465-0.2266,0.166c-0.4023,0.04-0.7344,0.1006-0.9951,0.1807c-0.2617,0.0811-0.5029,0.1914-0.7236,0.332
				c-0.2217,0.1406-0.4326,0.3066-0.6328,0.4971c-0.2012,0.1914-0.4434,0.418-0.7246,0.6787
				c-0.1807,0.1611-0.4219,0.3818-0.7236,0.6631c-0.3008,0.2822-0.6279,0.5781-0.9795,0.8896
				c-0.3525,0.3125-0.6934,0.6084-1.0254,0.8896c-0.332,0.2822-0.6182,0.5127-0.8594,0.6934
				c-0.0811,0.0605-0.1113,0.1211-0.0908,0.1816c0.0195,0.0605,0.0605,0.0898,0.1211,0.0898
				c0.8037,0.041,1.4717,0.1768,2.0049,0.4072c0.5322,0.2314,0.9805,0.5234,1.3418,0.875c0.3623,0.3516,0.668,0.749,0.9199,1.1914
				c0.251,0.4424,0.502,0.8994,0.7539,1.3721c0.251,0.4717,0.5322,0.9346,0.8447,1.3867c0.3115,0.4521,0.708,0.8701,1.1904,1.251
				c0.1406,0.1016,0.3174,0.1816,0.5283,0.2412c0.2109,0.0605,0.4268,0.1016,0.6484,0.1211c0.1201,0,0.2109,0.0508,0.2715,0.1504
				c0.0596,0.1016,0.0898,0.2119,0.0898,0.332c0,0.1006-0.0303,0.1963-0.0898,0.2861
				C126.5186,98.7793,126.4277,98.8242,126.3076,98.8242z"/>
		</g>
	</g>
</g>
</svg>
