<svg xmlns="http://www.w3.org/2000/svg" viewBox="0 0 341.333 341.333">
    <defs>
        <clipPath id="a" clipPathUnits="userSpaceOnUse">
            <path d="M0 256h256V0H0z"/>
        </clipPath>
    </defs>
    <path d="M0 341.333h341.333V0H0z" fill="#ba0b40"/>
    <g clip-path="url(#a)" transform="matrix(1.33333 0 0 -1.33333 0 341.333)">
        <path d="M118.371 84.478c-.393.478-.983 1.135-1.728 1.962-17.31 18.879-26.179 44.823-26.579 77.294.948.89 2.893 1.957 6.928 1.957H151.297c6.358-35.27-8.168-69.282-8.356-69.726 2.147 2.51 10.243 18.042 12.44 25.585 6.234 21.388 5.982 31.95 5.791 43.931 2.216-.349 3.473-1.09 4.165-1.75-.405-32.458-9.28-58.401-26.579-77.291a101.879 101.879 0 0 1-1.746-1.963c-2.877-3.545-7.96-10.939-9.319-16.66-1.344 5.715-6.435 13.11-9.322 16.66M91.846 193.804c.902 6.506.902 6.506 10.628 6.506h50.454c9.722 0 9.722 0 10.635-6.573a232.37 232.37 0 0 0 1.666-20.57c-.605-.939-2.25-2.303-6.829-2.303H96.992c-4.545 0-6.2 1.347-6.81 2.285.24 6.64.764 13.507 1.664 20.655m17.19 18.881c.132 0 .27-.033.408-.04 1.141 3.976 4.754 6.905 9.098 6.905 5.098 0 9.224-4.024 9.465-9.067.863.25 1.755.437 2.701.437.516 0 1.017-.075 1.517-.151 1.675 1.452 3.828 2.36 6.22 2.36 2.936 0 5.531-1.361 7.278-3.454 1.826-1.029 3.22-2.663 4.047-4.587H102.468c-1.023 0-1.876-.027-2.757-.042.871 4.352 4.713 7.64 9.324 7.64M157.437 5.72c-11.749 7.435-25.303 9.183-25.303 26.839V65.2c0 3.256 4.06 10.689 8.584 16.266 4.517 5.578 37.508 33.932 27.572 112.928-1.316 9.433-3.133 10.608-14.258 10.675-.902 3.134-2.903 5.913-5.746 7.713a13.39 13.39 0 0 1-9.846 4.322c-2.6 0-5.157-.765-7.34-2.22-1.95 5.082-6.845 8.643-12.56 8.643-4.945 0-9.468-2.795-11.79-7.062-5.815-.992-10.322-5.736-11.049-11.637-6.18-.636-7.547-2.892-8.595-10.434-9.938-78.996 23.054-107.352 27.57-112.928 4.52-5.577 8.587-13.01 8.587-16.266V32.559c0-17.656-13.56-19.404-25.312-26.84-8.97-6.02-5.426-5.875 9.04-5.875h41.413c14.461.004 18.014-.141 9.033 5.876" fill="#e9e4e5"/>
        <path d="M168.48 178.533l-2.543 3.53 42.371 30.563 2.545-3.527zM40.45 89.227a2.18 2.18 0 0 0-1.78.925 2.174 2.174 0 0 0 .525 3.029l48.77 34.453c.982.695 2.34.458 3.035-.524a2.17 2.17 0 0 0-.526-3.026l-48.769-34.46a2.255 2.255 0 0 0-1.255-.397" fill="#e9e4e5"/>
        <path d="M205.97 208.375c-2.555 4.167-2.421 8.898.299 10.566 2.722 1.67 6.999-.356 9.555-4.523 2.555-4.167 2.42-8.898-.3-10.566-2.722-1.668-7 .357-9.553 4.523" fill="#e9e4e5"/>
    </g>
</svg>
