<?xml version="1.0" encoding="UTF-8" standalone="no"?>
<svg
   xmlns:dc="http://purl.org/dc/elements/1.1/"
   xmlns:cc="http://creativecommons.org/ns#"
   xmlns:rdf="http://www.w3.org/1999/02/22-rdf-syntax-ns#"
   xmlns:svg="http://www.w3.org/2000/svg"
   xmlns="http://www.w3.org/2000/svg"
   viewBox="0 0 341.33334 341.33334"
   height="341.33334"
   width="341.33334"
   xml:space="preserve"
   id="svg2"
   version="1.1"><metadata
     id="metadata8"><rdf:RDF><cc:Work
         rdf:about=""><dc:format>image/svg+xml</dc:format><dc:type
           rdf:resource="http://purl.org/dc/dcmitype/StillImage" /></cc:Work></rdf:RDF></metadata><defs
     id="defs6"><clipPath
       id="clipPath20"
       clipPathUnits="userSpaceOnUse"><path
         id="path18"
         d="M 0,256 H 256 V 0 H 0 Z" /></clipPath></defs><g
     transform="matrix(1.3333333,0,0,-1.3333333,0,341.33333)"
     id="g10"><path
       id="path12"
       style="fill:#ba0b40;fill-opacity:1;fill-rule:nonzero;stroke:none"
       d="M 0,0 H 256 V 256 H 0 Z" /><g
       id="g14"><g
         clip-path="url(#clipPath20)"
         id="g16"><g
           transform="translate(118.3711,84.4775)"
           id="g22"><path
             id="path24"
             style="fill:#e9e4e5;fill-opacity:1;fill-rule:nonzero;stroke:none"
             d="m 0,0 c -0.393,0.478 -0.983,1.135 -1.728,1.962 -17.31,18.879 -26.179,44.823 -26.579,77.294 0.948,0.89 2.893,1.958 6.928,1.958 H 2.125 16.528 32.926 c 6.358,-35.27 -8.168,-69.282 -8.356,-69.726 2.147,2.51 10.243,18.042 12.44,25.585 6.234,21.387 5.982,31.95 5.791,43.931 2.216,-0.349 3.473,-1.09 4.165,-1.751 C 46.561,46.796 37.686,20.852 20.387,1.962 19.642,1.141 19.052,0.479 18.641,0 15.764,-3.545 10.68,-10.939 9.322,-16.661 7.978,-10.945 2.887,-3.551 0,0 m -26.525,109.327 c 0.902,6.506 0.902,6.506 10.628,6.506 h 50.454 c 9.722,0 9.722,0 10.635,-6.573 0.895,-7.114 1.424,-13.95 1.666,-20.571 -0.605,-0.938 -2.25,-2.302 -6.829,-2.302 H 16.528 2.125 -21.379 c -4.545,0 -6.2,1.347 -6.81,2.285 0.24,6.64 0.764,13.507 1.664,20.655 m 17.189,18.881 c 0.133,0 0.27,-0.033 0.409,-0.041 1.141,3.977 4.754,6.906 9.098,6.906 5.098,0 9.224,-4.024 9.465,-9.067 0.863,0.25 1.755,0.437 2.701,0.437 0.516,0 1.017,-0.076 1.517,-0.152 1.675,1.452 3.828,2.361 6.219,2.361 2.937,0 5.532,-1.362 7.279,-3.455 1.826,-1.028 3.22,-2.662 4.047,-4.586 H 10.764 7.882 -15.903 c -1.023,0 -1.876,-0.027 -2.757,-0.042 0.871,4.352 4.713,7.639 9.324,7.639 M 39.066,-78.758 c -11.749,7.435 -25.303,9.183 -25.303,26.839 v 32.642 c 0,3.256 4.06,10.689 8.584,16.266 4.517,5.578 37.508,33.932 27.572,112.928 -1.316,9.433 -3.133,10.608 -14.258,10.675 -0.902,3.134 -2.903,5.913 -5.746,7.713 -2.548,2.755 -6.098,4.322 -9.846,4.322 -2.601,0 -5.157,-0.765 -7.34,-2.22 -1.951,5.082 -6.845,8.643 -12.561,8.643 -4.944,0 -9.467,-2.795 -11.79,-7.062 -5.814,-0.992 -10.321,-5.736 -11.048,-11.637 -6.18,-0.636 -7.547,-2.892 -8.595,-10.434 C -41.203,30.921 -8.211,2.565 -3.696,-3.011 c 4.52,-5.577 8.588,-13.01 8.588,-16.266 v -32.642 c 0,-17.656 -13.56,-19.404 -25.312,-26.839 -8.971,-6.02 -5.426,-5.876 9.039,-5.876 h 41.414 c 14.461,0.004 18.014,-0.141 9.033,5.876" /></g><g
           transform="translate(168.4805,178.5327)"
           id="g26"><path
             id="path28"
             style="fill:#e9e4e5;fill-opacity:1;fill-rule:nonzero;stroke:none"
             d="m 0,0 -2.544,3.53 42.372,30.563 2.545,-3.527 z" /></g><g
           transform="translate(40.4502,89.2266)"
           id="g30"><path
             id="path32"
             style="fill:#e9e4e5;fill-opacity:1;fill-rule:nonzero;stroke:none"
             d="m 0,0 c -0.683,0 -1.354,0.324 -1.78,0.925 -0.69,0.981 -0.458,2.338 0.525,3.029 l 48.769,34.453 c 0.983,0.695 2.34,0.458 3.036,-0.524 0.691,-0.98 0.457,-2.334 -0.526,-3.026 L 1.255,0.397 C 0.87,0.138 0.434,0 0,0" /></g><g
           transform="translate(205.9707,208.3755)"
           id="g34"><path
             id="path36"
             style="fill:#e9e4e5;fill-opacity:1;fill-rule:nonzero;stroke:none"
             d="M 0,0 C -2.556,4.167 -2.422,8.898 0.298,10.566 3.02,12.236 7.297,10.21 9.853,6.043 12.408,1.876 12.274,-2.855 9.553,-4.523 6.831,-6.191 2.554,-4.166 0,0" /></g></g></g></g></svg>